<?xml version="1.0" encoding="UTF-8" standalone="no"?>
<!-- Created with Inkscape (http://www.inkscape.org/) -->

<svg
   width="192"
   height="192"
   viewBox="0 0 107.99999 107.99999"
   version="1.1"
   id="svg5"
   xml:space="preserve"
   inkscape:version="1.2 (dc2aedaf03, 2022-05-15)"
   sodipodi:docname="goagri-logo-v4-round.svg"
   inkscape:export-filename="logo-v4-512x512-round.png"
   inkscape:export-xdpi="8"
   inkscape:export-ydpi="8"
   xmlns:inkscape="http://www.inkscape.org/namespaces/inkscape"
   xmlns:sodipodi="http://sodipodi.sourceforge.net/DTD/sodipodi-0.dtd"
   xmlns="http://www.w3.org/2000/svg"
   xmlns:svg="http://www.w3.org/2000/svg"><sodipodi:namedview
     id="namedview7"
     pagecolor="#ffffff"
     bordercolor="#666666"
     borderopacity="1.0"
     inkscape:showpageshadow="2"
     inkscape:pageopacity="0"
     inkscape:pagecheckerboard="0"
     inkscape:deskcolor="#d1d1d1"
     inkscape:document-units="mm"
     showgrid="false"
     inkscape:zoom="2.8284272"
     inkscape:cx="36.946328"
     inkscape:cy="118.44038"
     inkscape:window-width="1920"
     inkscape:window-height="1017"
     inkscape:window-x="-8"
     inkscape:window-y="-8"
     inkscape:window-maximized="1"
     inkscape:current-layer="layer1" /><defs
     id="defs2"><rect
       x="274.1098"
       y="537.28888"
       width="147.77547"
       height="96.48497"
       id="rect302" /><rect
       x="274.1098"
       y="537.28888"
       width="147.77547"
       height="96.48497"
       id="rect302-2" /></defs><g
     inkscape:label="Layer 1"
     inkscape:groupmode="layer"
     id="layer1"><g
       id="g390"
       transform="matrix(1.6354695,0,0,1.6354707,9.0840711,12.807375)"><path
         id="path1657-3-9-2-8-6"
         style="font-size:40px;line-height:1.25;font-family:'Terminator Two';-inkscape-font-specification:'Terminator Two';letter-spacing:0px;word-spacing:0px;white-space:pre;fill:#008000;fill-opacity:1;stroke:none;stroke-width:1.69324;stroke-opacity:1"
         d="m 25.993737,3.1750669 -12.447876,0.065916 c -3.702511,0 -6.8835803,1.3343889 -9.5475578,3.9982386 C 1.3342613,9.8581466 4.0405003e-7,13.039153 4.0405003e-7,16.786846 v 2.979736 5.420303 5.8933 2.639083 c 0,3.702512 1.33426089594997,6.886908 3.99830279594997,9.550887 2.6639775,2.61886 5.8450468,3.928867 9.5475578,3.928867 h 23.705354 c 3.747693,0 6.932025,-1.312247 9.55095,-3.931107 C 49.466143,40.603937 50.8,37.419476 50.8,33.716964 c 0,-3.747629 -1.333857,-6.926457 -3.997835,-9.545318 -2.618925,-2.663978 -5.803257,-3.998302 -9.55095,-3.998302 h -2.030542 -2.03387 c -2.87011,0 -8.569354,0.01278 -11.439272,-0.0063 l 0.05952,10.089927 15.444166,0.07616 c 0.948235,0 1.739039,0.341099 2.371195,1.01863 0.677274,0.632284 1.015239,1.419696 1.015239,2.367866 0,0.903117 -0.337902,1.693985 -1.015239,2.371195 -0.632285,0.677594 -1.42296,0.993929 -2.371195,0.949194 l -23.705356,0.06594 h -0.201588 -0.135672 c -0.767573,-0.1357 -1.467822,-0.518398 -2.099978,-1.150874 -0.632285,-0.632285 -0.949195,-1.39877 -0.949195,-2.301759 V 16.78691 c 0,-0.586848 0.18111,-1.127168 0.542688,-1.623717 0.406374,-0.496614 0.85928,-0.880142 1.355956,-1.150911 0.270702,-0.180468 0.53949,-0.316782 0.810258,-0.407016 0.270703,-0.13503 0.497251,-0.226548 0.677914,-0.271344 h 5.676674 z"
         sodipodi:nodetypes="cccscccscsssscscsccccscccccssscccccc" /><path
         d="M 34.127679,3.1750029 27.35686,13.334432 H 22.409939 L 29.180757,3.1879942 Z"
         style="font-size:40px;line-height:1.25;font-family:'Terminator Two';-inkscape-font-specification:'Terminator Two';letter-spacing:0px;word-spacing:0px;white-space:pre;fill:#008000;fill-opacity:1;stroke:none;stroke-width:1.69324;stroke-opacity:1"
         id="path14212-8-5-7-2-9"
         sodipodi:nodetypes="ccccc" /><path
         d="M 42.26162,3.1750029 35.490802,13.334432 H 30.543881 L 37.314699,3.1870342 Z"
         style="font-size:40px;line-height:1.25;font-family:'Terminator Two';-inkscape-font-specification:'Terminator Two';letter-spacing:0px;word-spacing:0px;white-space:pre;fill:#008000;fill-opacity:1;stroke:none;stroke-width:1.69324;stroke-opacity:1"
         id="path14212-8-5-7-2-9-2"
         sodipodi:nodetypes="ccccc" /><path
         d="M 50.395562,3.1750029 43.624743,13.334432 H 38.677822 L 45.448641,3.1879942 Z"
         style="font-size:40px;line-height:1.25;font-family:'Terminator Two';-inkscape-font-specification:'Terminator Two';letter-spacing:0px;word-spacing:0px;white-space:pre;fill:#008000;fill-opacity:1;stroke:none;stroke-width:1.69324;stroke-opacity:1"
         id="path14212-8-5-7-2-9-2-5"
         sodipodi:nodetypes="ccccc" /></g></g></svg>
